HIERARCHY
ROOT Hips
{
  OFFSET -187.679 86.5976 -156.378
  CHANNELS 6 Xposition Yposition Zposition Zrotation Xrotation Yrotation
  JOINT LeftUpLeg
  {
    OFFSET 8.64259 1.95398 -2.38835
    CHANNELS 3 Zrotation Xrotation Yrotation
    JOINT LeftLeg
    {
      OFFSET 43.7702 0 0
      CHANNELS 3 Zrotation Xrotation Yrotation
      JOINT LeftFoot
      {
        OFFSET 40.6238 0 0
        CHANNELS 3 Zrotation Xrotation Yrotation
        JOINT LeftToeBase
        {
          OFFSET 12.7242 0 0
          CHANNELS 3 Zrotation Xrotation Yrotation
          End Site
          {
            OFFSET 0 0 0
          }
        }
      }
    }
  }
  JOINT RightUpLeg
  {
    OFFSET -8.2249 1.95398 -2.59336
    CHANNELS 3 Zrotation Xrotation Yrotation
    JOINT RightLeg
    {
      OFFSET 43.5653 0 0
      CHANNELS 3 Zrotation Xrotation Yrotation
      JOINT RightFoot
      {
        OFFSET 40.6238 0 0
        CHANNELS 3 Zrotation Xrotation Yrotation
        JOINT RightToeBase
        {
          OFFSET 12.7242 0 0
          CHANNELS 3 Zrotation Xrotation Yrotation
          End Site
          {
            OFFSET 0 0 0
          }
        }
      }
    }
  }
  JOINT Spine
  {
    OFFSET 0.165834 0.87714 6.61349
    CHANNELS 3 Zrotation Xrotation Yrotation
    JOINT Spine1
    {
      OFFSET 7.38963 1.71661e-005 0
      CHANNELS 3 Zrotation Xrotation Yrotation
      JOINT Spine2
      {
        OFFSET 11.9445 1.14441e-005 0
        CHANNELS 3 Zrotation Xrotation Yrotation
        JOINT Spine3
        {
          OFFSET 14.7254 4.19617e-005 0
          CHANNELS 3 Zrotation Xrotation Yrotation
          JOINT Spine4
          {
            OFFSET 10.9679 0 0
            CHANNELS 3 Zrotation Xrotation Yrotation
            JOINT RightShoulder
            {
              OFFSET 2.46616 -1.6653 3.69651
              CHANNELS 3 Zrotation Xrotation Yrotation
              JOINT RightArm
              {
                OFFSET 13.0012 0 0
                CHANNELS 3 Zrotation Xrotation Yrotation
                JOINT RightForeArm
                {
                  OFFSET 28.7848 1.52588e-005 0
                  CHANNELS 3 Zrotation Xrotation Yrotation
                  JOINT RightHand
                  {
                    OFFSET 26.5688 1.52588e-005 0
                    CHANNELS 3 Zrotation Xrotation Yrotation
                    End Site
                    {
                      OFFSET 0 0 0
                    }
                  }
                }
              }
            }
            JOINT LeftShoulder
            {
              OFFSET 2.38034 -1.29275 -3.7523
              CHANNELS 3 Zrotation Xrotation Yrotation
              JOINT LeftArm
              {
                OFFSET 16.3182 6.10352e-005 0
                CHANNELS 3 Zrotation Xrotation Yrotation
                JOINT LeftForeArm
                {
                  OFFSET 27.0901 0 0
                  CHANNELS 3 Zrotation Xrotation Yrotation
                  JOINT LeftHand
                  {
                    OFFSET 24.5451 1.52588e-005 0
                    CHANNELS 3 Zrotation Xrotation Yrotation
                    End Site
                    {
                      OFFSET 0 0 0
                    }
                  }
                }
              }
            }
            JOINT Neck
            {
              OFFSET 5.0226 -0.0266342 0
              CHANNELS 3 Zrotation Xrotation Yrotation
              JOINT Head
              {
                OFFSET 6.69363 2.86102e-005 0
                CHANNELS 3 Zrotation Xrotation Yrotation
                End Site
                {
                  OFFSET 0 0 0
                }
              }
            }
          }
        }
      }
    }
  }
}
MOTION
Frames:	13
Frame Time:	0.0416667
-220.787 100.297 -189.191 -100.31 43.2939 -81.4783 -174.218 5.05637 89.7083 -27.8541 17.1244 5.44083 68.5 4.86593 2.01802 22.2936 -1.19355 -3.46489 169.074 1.90452 84.9241 -24.5424 9.43161 4.87985 65.608 -2.57908 -0.70643 22.6813 -2.18482 3.56466 0.221796 8.67689 -89.6031 9.5175 0.621107 0.739627 -2.1535 0.653056 0.711563 -24.6875 0.370118 0.89209 -4.67483 0.3701 0.89208 86.087 -48.1239 -107.142 28.5228 -19.8375 -7.94873 -16.8279 -1.3609 -25.6348 -8.83154 0.709949 -15.1394 -87.9521 -46.3104 81.3186 -19.4238 22.0947 -2.21254 13.1342 -1.8543 -26.9911 -5.60064 -0.0728763 -4.67988 -30.6369 4.08251 1.17295 6.45473 4.31013 -0.254284 
-220.433 100.236 -189.328 -100.79 44.1675 -81.7767 -174.596 4.85003 88.9939 -27.8793 16.2692 5.52447 68.3256 4.82165 2.27446 21.4601 -2.28354 -1.4697 169.592 1.83529 84.7883 -24.6218 9.38564 4.09504 66.2936 -2.8667 -0.0156939 23.0854 -1.68368 2.33612 0.346535 8.59255 -89.5968 9.686 0.873124 0.730622 -1.98482 0.904434 0.691469 -24.5197 0.61318 0.959245 -4.50705 0.613193 0.959239 87.4797 -47.5122 -105.167 29.9605 -19.1397 -7.97963 -23.7495 -19.2095 -28.8109 -7.14875 -0.111951 -3.64092 -89.0398 -47.9842 79.9772 -17.6917 21.9305 -3.54888 12.9643 -1.75566 -24.921 -3.44344 -0.103732 -2.62874 -29.9471 3.69932 1.40655 4.9726 3.97683 0.215646 
-219.758 100.215 -190.277 -102.278 43.1491 -80.4719 -173.698 4.13619 90.4767 -28.8845 18.189 5.37622 68.6121 5.06554 2.22429 22.3778 -1.91673 -1.50638 170.072 0.16484 85.8355 -24.6586 10.9663 4.15398 66.8647 -3.03146 0.435612 22.8377 -1.76925 2.45388 0.235961 8.65968 -89.7427 9.55288 0.586513 0.465561 -2.118 0.606451 0.439277 -24.6531 0.419469 0.620308 -4.64044 0.419491 0.620302 87.7449 -47.5613 -104.738 29.3763 -19.3494 -7.84436 -23.8743 -18.4258 -29.3833 -6.82537 -0.0437594 -4.57652 -89.1742 -48.6152 79.9039 -17.7516 22.623 -4.52883 13.1123 -1.47391 -25.3527 -3.83677 -0.105037 -2.79779 -29.6898 3.60843 2.99423 5.35086 4.04771 -0.166245 
-219.038 100.177 -190.926 -102.641 43.4279 -80.4609 -173.496 3.98454 90.9961 -28.7854 18.0969 5.24353 68.3318 4.98401 2.10055 23.1515 -1.37776 -2.15751 170.199 0.225022 86.0273 -25.3391 10.7677 4.25439 67.5329 -3.12911 0.476926 21.9268 -1.95849 2.5151 0.183399 8.61524 -89.7746 9.64241 0.467487 0.410745 -2.02852 0.485146 0.389755 -24.5635 0.322438 0.532256 -4.55087 0.322452 0.53225 87.009 -47.7251 -105.837 27.8932 -20.0002 -6.67539 -22.4762 -14.2883 -29.6255 -8.29143 -0.0925728 -3.94763 -90.4152 -49.5989 78.2506 -18.4864 20.4995 -3.38006 15.3766 1.4466 -27.8591 -5.0018 -0.11635 -2.87025 -29.2017 4.00445 4.24361 4.49473 4.53839 -0.915227 
-218.378 100.305 -191.536 -102.945 44.2862 -80.6511 -173.501 3.15861 90.968 -27.4912 17.3192 5.27416 68.2206 4.7341 1.29801 22.9024 -2.08387 -0.548825 170.434 -0.0515904 86.1662 -24.6999 10.0862 3.98535 67.6352 -3.17502 0.259943 21.4533 -2.01575 2.4323 0.198432 8.55889 -89.7641 9.75497 0.502382 0.428259 -1.91594 0.520761 0.405728 -24.451 0.350458 0.559445 -4.43831 0.350461 0.559449 88.1207 -46.5562 -104.437 30.7782 -18.479 -8.25253 -22.4212 -17.0886 -27.3992 -8.53132 -0.0753361 -4.20159 -90.8795 -49.9454 77.6326 -19.1773 19.5463 -2.62802 16.0711 2.11855 -28.6396 -5.99142 -0.114643 -3.30458 -28.7674 4.11541 3.53663 5.08122 4.70203 1.27457 
-217.755 100.374 -191.958 -102.862 44.8778 -80.7821 -173.862 2.45944 90.9046 -25.8953 16.4624 5.87937 67.8043 4.43648 1.04537 23.7329 -1.82854 -0.364235 170.788 -0.000366159 86.6282 -24.4081 10.1195 3.86193 67.7925 -3.2566 0.34301 21.3291 -2.03504 2.4221 0.148076 8.48372 -89.7255 9.90517 0.419831 0.510608 -1.7658 0.441886 0.491642 -24.3004 0.246946 0.613175 -4.28773 0.246955 0.61317 86.0576 -49.1177 -106.875 27.7832 -18.7958 -7.10201 -21.5569 -15.5628 -26.7031 -8.00901 -0.0450619 -4.61491 -90.6124 -49.0288 77.8211 -20.79 20.0036 -2.01956 15.4414 1.93269 -27.0736 -5.31074 -0.104053 -3.45805 -27.1711 4.8864 3.4019 3.37782 5.34525 0.362418 
-217.272 100.437 -192.471 -102.553 45.1258 -81.3152 -173.854 2.23377 90.9061 -24.9752 16.3715 6.00197 67.3617 4.05437 0.681615 24.2534 -1.83201 0.193264 170.869 0.24268 86.763 -24.3947 10.1113 3.79381 67.8879 -3.34408 0.428489 21.3906 -1.97058 2.27476 0.0674152 8.41156 -89.7484 10.05 0.248917 0.47888 -1.62097 0.269731 0.467462 -24.1555 0.093461 0.531545 -4.14282 0.0934798 0.531551 88.3425 -48.326 -103.598 28.4586 -20.346 -9.2769 -20.123 -16.6837 -23.6199 -8.91872 -0.0481822 -4.60739 -90.9264 -49.5313 77.4666 -21.379 20.5214 -1.81664 14.7433 2.05489 -24.805 -5.45875 -0.109839 -3.31353 -25.9242 5.08917 3.70329 3.33261 5.56709 0.968871 
-216.96 100.433 -192.983 -102.499 45.2391 -81.4412 -173.56 2.05115 91.3301 -24.5986 16.9254 5.84827 67.198 4.0423 0.933553 24.6899 -1.68387 0.260723 170.914 0.16937 86.9902 -24.5147 10.1847 3.9137 68.2007 -3.41681 0.44154 20.9067 -2.15394 2.53469 0.0105377 8.36933 -89.7638 10.1347 0.128703 0.458123 -1.5363 0.148741 0.452015 -24.0708 -0.0149442 0.475626 -4.05816 -0.0149355 0.475628 85.7994 -49.8479 -107.044 28.3304 -17.7601 -8.17525 -20.8441 -18.3077 -23.4334 -8.39936 -0.060207 -4.41221 -90.7042 -49.4442 77.7793 -21.7603 21.1299 -1.90186 14.8381 2.78746 -24.0845 -6.36123 -0.10729 -3.65132 -26.0141 5.679 4.17954 3.14466 6.2205 1.0893 
-216.841 100.491 -193.571 -102.197 45.5331 -81.5807 -173.615 1.68439 91.5104 -23.8292 16.7348 6.14012 67.0122 3.92876 0.803284 24.9075 -1.72111 0.599948 171.076 -0.0632321 87.3453 -24.054 10.2212 4.00389 68.2922 -3.45055 0.521903 20.5995 -2.17438 2.43548 0.0893778 8.25634 -89.7255 10.3602 0.303851 0.518893 -1.31077 0.326398 0.505007 -23.8452 0.133862 0.586218 -3.83254 0.133842 0.586212 87.1014 -48.4504 -105.479 30.7888 -18.7695 -7.34787 -20.7169 -17.6919 -23.9957 -8.39911 -0.0702858 -4.26403 -90.3491 -47.7138 77.9164 -23.4472 20.4136 -1.49502 14.8174 2.84013 -24.1334 -4.83619 -0.107353 -3.26949 -25.3573 7.3548 2.21424 1.39187 7.80943 3.47508 
-216.966 100.513 -194.096 -102.25 45.9266 -81.7531 -173.553 0.965075 91.4496 -23.1064 16.382 6.12359 66.9372 3.87207 0.698083 25.1937 -1.68612 0.818917 171.114 -0.40512 87.2438 -23.7862 9.83074 3.87243 68.4591 -3.48343 0.434205 20.563 -2.2278 2.56204 0.0810759 8.18235 -89.7945 10.5087 0.255799 0.385721 -1.16231 0.272534 0.37408 -23.6971 0.128046 0.444769 -3.68444 0.128046 0.444769 86.7226 -49.0893 -105.867 30.1529 -19.4603 -7.44863 -20.0327 -17.6223 -22.805 -8.65867 -0.0587093 -4.45177 -90.8295 -49.4929 77.6032 -22.6875 21.2157 -0.744336 15.1607 2.6537 -25.3093 -6.49195 -0.109283 -3.64119 -25.2903 8.87549 6.27788 2.54947 9.66945 2.40444 
-217.158 100.546 -194.481 -101.594 45.9806 -82.4417 -173.621 0.964528 91.3832 -22.6338 16.2794 6.01285 66.6437 3.75121 0.424617 25.4915 -1.53214 0.722319 171.022 -0.147967 87.0468 -23.7482 9.4996 3.99275 68.2885 -3.34291 0.162129 20.7169 -2.32807 2.91296 0.11297 8.0764 -89.8245 10.7205 0.305977 0.320342 -0.950413 0.319777 0.306552 -23.4854 0.195552 0.397487 -3.47274 0.195541 0.397479 88.2151 -47.5497 -104.009 31.6733 -20.5701 -7.9611 -19.6229 -17.8595 -22.2769 -8.96828 -0.0585562 -4.46552 -91.1961 -49.6931 77.1011 -23.1362 21.7668 -1.77618 14.3633 2.09588 -23.8704 -5.08282 -0.111223 -3.25497 -22.6121 10.0221 9.53504 0.0863721 10.7169 -0.871911 
-217.5 100.602 -194.79 -100.975 46.1856 -82.8277 -173.763 0.799048 91.2312 -22.0019 15.9107 6.16436 66.7515 3.80918 0.483121 25.0393 -1.66545 0.591421 171.041 -0.322564 87.0468 -23.1076 9.4838 4.0736 68.1777 -3.30183 0.23038 20.8329 -2.34752 3.02577 0.143409 8.02259 -89.9305 10.8287 0.317707 0.109215 -0.842161 0.322218 0.0951107 -23.3775 0.270201 0.199647 -3.3649 0.270199 0.199643 90.117 -45.4514 -101.542 32.7454 -21.2962 -9.75776 -19.1429 -17.709 -21.5108 -9.21676 -0.0309094 -4.85131 -92.2776 -51.1899 75.867 -22.1849 22.2284 -2.9472 13.3152 0.427386 -22.8897 -3.64581 -0.111085 -3.11463 -20.5496 11.193 12.9485 1.66441 11.6385 -4.43042 
-217.83 100.655 -195.018 -100.888 46.719 -82.8996 -173.97 0.107831 90.9035 -21.1169 15.1906 6.49685 66.5111 3.60961 0.423924 25.1761 -1.61461 0.601723 171.083 -0.533818 86.9634 -22.7039 9.0247 3.89024 68.1464 -3.32932 0.246514 20.8813 -2.29358 2.9037 0.135139 7.90247 -89.759 11.068 0.380858 0.442904 -0.602984 0.399992 0.425718 -23.1377 0.230131 0.536896 -3.12509 0.230144 0.536894 87.8676 -47.7331 -104.498 31.2096 -20.3356 -8.70142 -20.4645 -18.1963 -23.6592 -7.7665 -0.0408847 -4.67768 -90.7311 -47.6806 77.325 -25.6142 21.4083 -2.20701 13.9347 1.28807 -23.5348 -4.18242 -0.106936 -2.90955 -17.3514 16.5406 9.47775 2.60477 16.7847 0.596719 
